# Noesis .obj export.
#
mtllib Ultra64.mtl
g
v  -224.722305 0.000000 224.722305
v  -224.722305 494.389069 224.722305
v  224.722305 -494.389069 224.722305
v  224.722305 -0.000000 224.722305
v  -494.389069 494.389069 224.722305
v  -494.389069 0.000000 224.722305
v  494.389069 -494.389069 224.722305
v  494.389069 -0.000000 224.722305

vt  0.000000 1.000000 0.000000
vt  0.000000 1.000000 0.000000
vt  0.000000 1.000000 0.000000
vt  0.000000 1.000000 0.000000
vt  0.000000 1.000000 0.000000
vt  0.000000 1.000000 0.000000
vt  0.000000 1.000000 0.000000
vt  0.000000 1.000000 0.000000

vn  0.000000 0.000000 -1.000000
vn  0.000000 0.000000 -1.000000
vn  0.000000 0.000000 -1.000000
vn  0.000000 0.000000 -1.000000
vn  0.000000 0.000000 -1.000000
vn  0.000000 0.000000 -1.000000
vn  0.000000 0.000000 -1.000000
vn  0.000000 0.000000 -1.000000

g 0000_ShittyLogo
usemtl Material6
f  1/1/1 2/2/2 3/3/3
f  2/2/2 4/4/4 3/3/3
f  5/5/5 2/2/2 1/1/1
f  5/5/5 1/1/1 6/6/6
f  7/7/7 3/3/3 4/4/4
f  7/7/7 4/4/4 8/8/8

g
v  494.389069 494.389069 494.389069
v  224.722305 494.389069 224.722305
v  224.722305 494.389069 494.389069
v  -224.722305 494.389069 224.722305
v  -494.389069 494.389069 494.389069
v  -224.722305 494.389069 494.389069
v  224.722305 -494.389069 224.722305
v  494.389069 -494.389069 494.389069
v  224.722305 -494.389069 494.389069
v  -224.722305 -494.389069 224.722305
v  -224.722305 -494.389069 494.389069
v  -494.389069 -494.389069 494.389069
v  -494.389069 494.389069 224.722305
v  -224.722305 494.389069 -224.722305
v  -494.389069 494.389069 -494.389069
v  -494.389069 494.389069 -224.722305
v  -494.389069 -494.389069 224.722305
v  -494.389069 -494.389069 -224.722305
v  -494.389069 -494.389069 -494.389069
v  -224.722305 -494.389069 -224.722305
v  -224.722305 494.389069 -494.389069
v  224.722305 494.389069 -224.722305
v  494.389069 494.389069 -494.389069
v  224.722305 494.389069 -494.389069
v  -224.722305 -494.389069 -494.389069
v  224.722305 -494.389069 -494.389069
v  494.389069 -494.389069 -494.389069
v  224.722305 -494.389069 -224.722305
v  494.389069 -494.389069 224.722305
v  494.389069 494.389069 -224.722305
v  494.389069 494.389069 224.722305
v  494.389069 -494.389069 -224.722305

vt  0.000000 1.000000 0.000000
vt  0.000000 1.000000 0.000000
vt  0.000000 1.000000 0.000000
vt  0.000000 1.000000 0.000000
vt  0.000000 1.000000 0.000000
vt  0.000000 1.000000 0.000000
vt  0.000000 1.000000 0.000000
vt  0.000000 1.000000 0.000000
vt  0.000000 1.000000 0.000000
vt  0.000000 1.000000 0.000000
vt  0.000000 1.000000 0.000000
vt  0.000000 1.000000 0.000000
vt  0.000000 1.000000 0.000000
vt  0.000000 1.000000 0.000000
vt  0.000000 1.000000 0.000000
vt  0.000000 1.000000 0.000000
vt  0.000000 1.000000 0.000000
vt  0.000000 1.000000 0.000000
vt  0.000000 1.000000 0.000000
vt  0.000000 1.000000 0.000000
vt  0.000000 1.000000 0.000000
vt  0.000000 1.000000 0.000000
vt  0.000000 1.000000 0.000000
vt  0.000000 1.000000 0.000000
vt  0.000000 1.000000 0.000000
vt  0.000000 1.000000 0.000000
vt  0.000000 1.000000 0.000000
vt  0.000000 1.000000 0.000000
vt  0.000000 1.000000 0.000000
vt  0.000000 1.000000 0.000000
vt  0.000000 1.000000 0.000000
vt  0.000000 1.000000 0.000000

vn  0.000000 1.000000 0.000000
vn  0.000000 0.963747 -0.266817
vn  0.000000 1.000000 0.000000
vn  0.266817 0.963747 0.000000
vn  0.000000 1.000000 0.000000
vn  0.533634 0.845715 0.000000
vn  -0.266817 -0.963747 0.000000
vn  -0.000000 -1.000000 0.000000
vn  -0.533634 -0.845715 0.000000
vn  0.000000 -0.914514 -0.404554
vn  0.000000 -1.000000 0.000000
vn  0.000000 -1.000000 0.000000
vn  0.000000 1.000000 0.000000
vn  0.000000 0.914514 0.404554
vn  0.000000 1.000000 0.000000
vn  0.000000 0.914514 0.404554
vn  0.000000 -0.914514 -0.404554
vn  0.000000 -1.000000 0.000000
vn  0.000000 -1.000000 0.000000
vn  0.266817 -0.963747 0.000000
vn  0.000000 1.000000 0.000000
vn  -0.266817 0.963747 0.000000
vn  0.000000 1.000000 0.000000
vn  -0.533634 0.845715 0.000000
vn  0.533634 -0.845715 -0.000000
vn  -0.000000 -1.000000 -0.000000
vn  -0.000000 -1.000000 -0.000000
vn  -0.000000 -0.963747 0.266817
vn  0.000000 -1.000000 0.000000
vn  0.000000 1.000000 0.000000
vn  0.000000 0.845715 -0.533634
vn  -0.000000 -0.845715 0.533634

g 0001_ShittyLogo
usemtl Material11
f  9/9/9 10/10/10 11/11/11
f  12/12/12 13/13/13 14/14/14
f  15/15/15 16/16/16 17/17/17
f  18/18/18 19/19/19 20/20/20
f  21/21/21 13/13/13 12/12/12
f  22/22/22 23/23/23 24/24/24
f  25/25/25 18/18/18 20/20/20
f  26/26/26 27/27/27 28/28/28
f  22/22/22 29/29/29 23/23/23
f  30/30/30 31/31/31 32/32/32
f  28/28/28 27/27/27 33/33/33
f  34/34/34 35/35/35 36/36/36
f  37/37/37 16/16/16 15/15/15
f  38/38/38 31/31/31 30/30/30
f  9/9/9 39/39/39 10/10/10
f  35/35/35 40/40/40 36/36/36

g
v  224.722305 494.389069 494.389069
v  224.722305 494.389069 224.722305
v  224.722305 -0.000000 224.722305
v  224.722305 0.000000 494.389069
v  224.722305 -494.389069 -494.389069
v  224.722305 -0.000000 -224.722305
v  224.722305 0.000000 -494.389069
v  224.722305 -494.389069 -224.722305

vt  0.000000 1.000000 0.000000
vt  0.000000 1.000000 0.000000
vt  0.000000 1.000000 0.000000
vt  0.000000 1.000000 0.000000
vt  0.000000 1.000000 0.000000
vt  0.000000 1.000000 0.000000
vt  0.000000 1.000000 0.000000
vt  0.000000 1.000000 0.000000

vn  -1.000000 0.000000 0.000000
vn  -1.000000 0.000000 0.000000
vn  -1.000000 0.000000 0.000000
vn  -1.000000 0.000000 0.000000
vn  -1.000000 0.000000 0.000000
vn  -1.000000 0.000000 0.000000
vn  -1.000000 0.000000 0.000000
vn  -1.000000 0.000000 0.000000

g 0002_ShittyLogo
usemtl Material5
f  41/41/41 42/42/42 43/43/43
f  41/41/41 43/43/43 44/44/44
f  45/45/45 46/46/46 47/47/47
f  42/42/42 46/46/46 48/48/48
f  42/42/42 48/48/48 43/43/43
f  45/45/45 48/48/48 46/46/46

g
v  -224.722305 494.389069 494.389069
v  224.722305 0.000000 494.389069
v  224.722305 -0.000000 224.722305
v  -224.722305 494.389069 224.722305
v  -224.722305 0.000000 -224.722305
v  224.722305 494.389069 -494.389069
v  -224.722305 0.000000 -494.389069
v  224.722305 494.389069 -224.722305

vt  0.000000 1.000000 0.000000
vt  0.000000 1.000000 0.000000
vt  0.000000 1.000000 0.000000
vt  0.000000 1.000000 0.000000
vt  0.000000 1.000000 0.000000
vt  0.000000 1.000000 0.000000
vt  0.000000 1.000000 0.000000
vt  0.000000 1.000000 0.000000

vn  0.533634 0.845715 0.000000
vn  0.739940 0.672673 0.000000
vn  0.739940 0.672673 0.000000
vn  0.266817 0.963747 0.000000
vn  -0.739940 0.672673 0.000000
vn  -0.533634 0.845715 0.000000
vn  -0.739940 0.672673 0.000000
vn  -0.266817 0.963747 0.000000

g 0003_ShittyLogo
usemtl Material3
f  49/49/49 50/50/50 51/51/51
f  49/49/49 51/51/51 52/52/52
f  53/53/53 54/54/54 55/55/55
f  53/53/53 56/56/56 54/54/54

g
v  494.389069 494.389069 494.389069
v  224.722305 494.389069 494.389069
v  494.389069 -0.000000 494.389069
v  224.722305 0.000000 494.389069
v  494.389069 -494.389069 494.389069
v  224.722305 -494.389069 494.389069
v  -224.722305 494.389069 494.389069
v  -224.722305 0.000000 494.389069
v  -494.389069 494.389069 494.389069
v  -494.389069 0.000000 494.389069
v  -224.722305 -494.389069 494.389069
v  -494.389069 -494.389069 494.389069
v  494.389069 -494.389069 -494.389069
v  224.722305 -494.389069 -494.389069
v  494.389069 -0.000000 -494.389069
v  224.722305 0.000000 -494.389069
v  494.389069 494.389069 -494.389069
v  224.722305 494.389069 -494.389069
v  -224.722305 -494.389069 -494.389069
v  -224.722305 0.000000 -494.389069
v  -494.389069 -494.389069 -494.389069
v  -494.389069 0.000000 -494.389069
v  -224.722305 494.389069 -494.389069
v  -494.389069 494.389069 -494.389069

vt  0.000000 1.000000 0.000000
vt  0.000000 1.000000 0.000000
vt  0.000000 1.000000 0.000000
vt  0.000000 1.000000 0.000000
vt  0.000000 1.000000 0.000000
vt  0.000000 1.000000 0.000000
vt  0.000000 1.000000 0.000000
vt  0.000000 1.000000 0.000000
vt  0.000000 1.000000 0.000000
vt  0.000000 1.000000 0.000000
vt  0.000000 1.000000 0.000000
vt  0.000000 1.000000 0.000000
vt  0.000000 1.000000 0.000000
vt  0.000000 1.000000 0.000000
vt  0.000000 1.000000 0.000000
vt  0.000000 1.000000 0.000000
vt  0.000000 1.000000 0.000000
vt  0.000000 1.000000 0.000000
vt  0.000000 1.000000 0.000000
vt  0.000000 1.000000 0.000000
vt  0.000000 1.000000 0.000000
vt  0.000000 1.000000 0.000000
vt  0.000000 1.000000 0.000000
vt  0.000000 1.000000 0.000000

vn  0.000000 0.000000 1.000000
vn  0.000000 0.000000 1.000000
vn  0.000000 0.000000 1.000000
vn  0.000000 0.000000 1.000000
vn  0.000000 0.000000 1.000000
vn  0.000000 0.000000 1.000000
vn  0.000000 0.000000 1.000000
vn  0.000000 0.000000 1.000000
vn  0.000000 0.000000 1.000000
vn  0.000000 0.000000 1.000000
vn  0.000000 0.000000 1.000000
vn  0.000000 0.000000 1.000000
vn  0.000000 0.000000 -1.000000
vn  0.000000 0.000000 -1.000000
vn  0.000000 0.000000 -1.000000
vn  0.000000 0.000000 -1.000000
vn  0.000000 0.000000 -1.000000
vn  0.000000 0.000000 -1.000000
vn  0.000000 0.000000 -1.000000
vn  0.000000 0.000000 -1.000000
vn  0.000000 0.000000 -1.000000
vn  0.000000 0.000000 -1.000000
vn  0.000000 0.000000 -1.000000
vn  0.000000 0.000000 -1.000000

g 0004_ShittyLogo
usemtl Material1
f  57/57/57 58/58/58 59/59/59
f  58/58/58 60/60/60 59/59/59
f  61/61/61 59/59/59 60/60/60
f  62/62/62 61/61/61 60/60/60
f  60/60/60 63/63/63 62/62/62
f  63/63/63 64/64/64 62/62/62
f  64/64/64 63/63/63 65/65/65
f  64/64/64 65/65/65 66/66/66
f  67/67/67 64/64/64 66/66/66
f  68/68/68 67/67/67 66/66/66
f  69/69/69 70/70/70 71/71/71
f  70/70/70 72/72/72 71/71/71
f  73/73/73 71/71/71 72/72/72
f  74/74/74 73/73/73 72/72/72
f  72/72/72 75/75/75 74/74/74
f  75/75/75 76/76/76 74/74/74
f  76/76/76 75/75/75 77/77/77
f  76/76/76 77/77/77 78/78/78
f  76/76/76 78/78/78 79/79/79
f  78/78/78 80/80/80 79/79/79

g
v  224.722305 -494.389069 494.389069
v  -224.722305 0.000000 224.722305
v  224.722305 -494.389069 224.722305
v  -224.722305 0.000000 494.389069
v  -224.722305 -494.389069 -494.389069
v  224.722305 -0.000000 -224.722305
v  -224.722305 -494.389069 -224.722305
v  224.722305 0.000000 -494.389069

vt  0.000000 1.000000 0.000000
vt  0.000000 1.000000 0.000000
vt  0.000000 1.000000 0.000000
vt  0.000000 1.000000 0.000000
vt  0.000000 1.000000 0.000000
vt  0.000000 1.000000 0.000000
vt  0.000000 1.000000 0.000000
vt  0.000000 1.000000 0.000000

vn  -0.533634 -0.845715 0.000000
vn  -0.739940 -0.672673 0.000000
vn  -0.266817 -0.963747 0.000000
vn  -0.739940 -0.672673 0.000000
vn  0.533634 -0.845715 -0.000000
vn  0.739940 -0.672673 -0.000000
vn  0.266817 -0.963747 0.000000
vn  0.739940 -0.672673 -0.000000

g 0005_ShittyLogo
usemtl Material10
f  81/81/81 82/82/82 83/83/83
f  81/81/81 84/84/84 82/82/82
f  85/85/85 86/86/86 87/87/87
f  85/85/85 88/88/88 86/86/86

g
v  -224.722305 -494.389069 494.389069
v  -224.722305 -494.389069 224.722305
v  -224.722305 0.000000 224.722305
v  -224.722305 0.000000 494.389069
v  -224.722305 494.389069 -224.722305
v  -224.722305 0.000000 -224.722305
v  -224.722305 494.389069 -494.389069
v  -224.722305 0.000000 -494.389069

vt  0.000000 1.000000 0.000000
vt  0.000000 1.000000 0.000000
vt  0.000000 1.000000 0.000000
vt  0.000000 1.000000 0.000000
vt  0.000000 1.000000 0.000000
vt  0.000000 1.000000 0.000000
vt  0.000000 1.000000 0.000000
vt  0.000000 1.000000 0.000000

vn  1.000000 0.000000 0.000000
vn  1.000000 0.000000 0.000000
vn  1.000000 0.000000 0.000000
vn  1.000000 0.000000 0.000000
vn  1.000000 0.000000 0.000000
vn  1.000000 0.000000 0.000000
vn  1.000000 0.000000 0.000000
vn  1.000000 0.000000 0.000000

g 0006_ShittyLogo
usemtl Material7
f  89/89/89 90/90/90 91/91/91
f  89/89/89 91/91/91 92/92/92
f  93/93/93 91/91/91 90/90/90
f  93/93/93 90/90/90 94/94/94
f  93/93/93 94/94/94 95/95/95
f  94/94/94 96/96/96 95/95/95

g
v  -224.722305 494.389069 -224.722305
v  -494.389069 0.000000 224.722305
v  -224.722305 0.000000 224.722305
v  -494.389069 494.389069 -224.722305
v  494.389069 494.389069 224.722305
v  224.722305 -0.000000 -224.722305
v  224.722305 494.389069 224.722305
v  494.389069 -0.000000 -224.722305

vt  0.000000 1.000000 0.000000
vt  0.000000 1.000000 0.000000
vt  0.000000 1.000000 0.000000
vt  0.000000 1.000000 0.000000
vt  0.000000 1.000000 0.000000
vt  0.000000 1.000000 0.000000
vt  0.000000 1.000000 0.000000
vt  0.000000 1.000000 0.000000

vn  0.000000 0.914514 0.404554
vn  0.000000 0.672673 0.739940
vn  0.000000 0.672673 0.739940
vn  0.000000 0.914514 0.404554
vn  0.000000 0.845715 -0.533634
vn  0.000000 0.672673 -0.739940
vn  0.000000 0.963747 -0.266817
vn  0.000000 0.672673 -0.739940

g 0007_ShittyLogo
usemtl Material4
f  97/97/97 98/98/98 99/99/99
f  97/97/97 100/100/100 98/98/98
f  101/101/101 102/102/102 103/103/103
f  101/101/101 104/104/104 102/102/102

g
v  -494.389069 0.000000 224.722305
v  -494.389069 -494.389069 224.722305
v  -494.389069 -494.389069 494.389069
v  -494.389069 0.000000 494.389069
v  -494.389069 494.389069 224.722305
v  -494.389069 494.389069 494.389069
v  -494.389069 494.389069 -224.722305
v  -494.389069 0.000000 -224.722305
v  -494.389069 494.389069 -494.389069
v  -494.389069 0.000000 -494.389069
v  -494.389069 -494.389069 -224.722305
v  -494.389069 -494.389069 -494.389069
v  494.389069 -0.000000 494.389069
v  494.389069 -494.389069 494.389069
v  494.389069 -494.389069 224.722305
v  494.389069 -0.000000 224.722305
v  494.389069 -494.389069 -224.722305
v  494.389069 -0.000000 -224.722305
v  494.389069 494.389069 224.722305
v  494.389069 494.389069 494.389069
v  494.389069 -494.389069 -494.389069
v  494.389069 -0.000000 -494.389069
v  494.389069 494.389069 -224.722305
v  494.389069 494.389069 -494.389069

vt  0.000000 1.000000 0.000000
vt  0.000000 1.000000 0.000000
vt  0.000000 1.000000 0.000000
vt  0.000000 1.000000 0.000000
vt  0.000000 1.000000 0.000000
vt  0.000000 1.000000 0.000000
vt  0.000000 1.000000 0.000000
vt  0.000000 1.000000 0.000000
vt  0.000000 1.000000 0.000000
vt  0.000000 1.000000 0.000000
vt  0.000000 1.000000 0.000000
vt  0.000000 1.000000 0.000000
vt  0.000000 1.000000 0.000000
vt  0.000000 1.000000 0.000000
vt  0.000000 1.000000 0.000000
vt  0.000000 1.000000 0.000000
vt  0.000000 1.000000 0.000000
vt  0.000000 1.000000 0.000000
vt  0.000000 1.000000 0.000000
vt  0.000000 1.000000 0.000000
vt  0.000000 1.000000 0.000000
vt  0.000000 1.000000 0.000000
vt  0.000000 1.000000 0.000000
vt  0.000000 1.000000 0.000000

vn  -1.000000 0.000000 0.000000
vn  -1.000000 0.000000 0.000000
vn  -1.000000 0.000000 0.000000
vn  -1.000000 0.000000 0.000000
vn  -1.000000 0.000000 0.000000
vn  -1.000000 -0.000000 -0.000000
vn  -1.000000 0.000000 0.000000
vn  -1.000000 0.000000 0.000000
vn  -1.000000 0.000000 0.000000
vn  -1.000000 0.000000 0.000000
vn  -1.000000 0.000000 0.000000
vn  -1.000000 0.000000 0.000000
vn  1.000000 0.000000 0.000000
vn  1.000000 0.000000 0.000000
vn  1.000000 0.000000 0.000000
vn  1.000000 0.000000 0.000000
vn  1.000000 0.000000 0.000000
vn  1.000000 0.000000 0.000000
vn  1.000000 0.000000 0.000000
vn  1.000000 0.000000 0.000000
vn  1.000000 0.000000 0.000000
vn  1.000000 0.000000 0.000000
vn  1.000000 0.000000 0.000000
vn  1.000000 0.000000 0.000000

g 0008_ShittyLogo
usemtl Material2
f  105/105/105 106/106/106 107/107/107
f  105/105/105 107/107/107 108/108/108
f  109/109/109 105/105/105 108/108/108
f  110/110/110 109/109/109 108/108/108
f  106/106/106 105/105/105 111/111/111
f  111/111/111 112/112/112 106/106/106
f  111/111/111 113/113/113 112/112/112
f  113/113/113 114/114/114 112/112/112
f  112/112/112 114/114/114 115/115/115
f  114/114/114 116/116/116 115/115/115
f  117/117/117 118/118/118 119/119/119
f  117/117/117 119/119/119 120/120/120
f  121/121/121 122/122/122 123/123/123
f  123/123/123 120/120/120 121/121/121
f  120/120/120 124/124/124 117/117/117
f  120/120/120 123/123/123 124/124/124
f  121/121/121 125/125/125 122/122/122
f  125/125/125 126/126/126 122/122/122
f  127/127/127 122/122/122 126/126/126
f  128/128/128 127/127/127 126/126/126

g
v  -494.389069 0.000000 -224.722305
v  -224.722305 -494.389069 224.722305
v  -494.389069 -494.389069 224.722305
v  -224.722305 0.000000 -224.722305
v  494.389069 -494.389069 -224.722305
v  494.389069 -0.000000 224.722305
v  224.722305 -0.000000 224.722305
v  224.722305 -494.389069 -224.722305

vt  0.000000 1.000000 0.000000
vt  0.000000 1.000000 0.000000
vt  0.000000 1.000000 0.000000
vt  0.000000 1.000000 0.000000
vt  0.000000 1.000000 0.000000
vt  0.000000 1.000000 0.000000
vt  0.000000 1.000000 0.000000
vt  0.000000 1.000000 0.000000

vn  0.000000 -0.672673 -0.739940
vn  0.000000 -0.914514 -0.404554
vn  0.000000 -0.914514 -0.404554
vn  -0.000000 -0.672673 -0.739940
vn  -0.000000 -0.845715 0.533634
vn  -0.000000 -0.672673 0.739940
vn  -0.000000 -0.672673 0.739940
vn  -0.000000 -0.963747 0.266817

g 0009_ShittyLogo
usemtl Material9
f  129/129/129 130/130/130 131/131/131
f  132/132/132 130/130/130 129/129/129
f  133/133/133 134/134/134 135/135/135
f  133/133/133 135/135/135 136/136/136

g
v  -224.722305 0.000000 -224.722305
v  -494.389069 0.000000 -224.722305
v  -494.389069 -494.389069 -224.722305
v  -224.722305 -494.389069 -224.722305
v  224.722305 494.389069 -224.722305
v  224.722305 -0.000000 -224.722305
v  494.389069 494.389069 -224.722305
v  494.389069 -0.000000 -224.722305

vt  0.000000 1.000000 0.000000
vt  0.000000 1.000000 0.000000
vt  0.000000 1.000000 0.000000
vt  0.000000 1.000000 0.000000
vt  0.000000 1.000000 0.000000
vt  0.000000 1.000000 0.000000
vt  0.000000 1.000000 0.000000
vt  0.000000 1.000000 0.000000

vn  0.000000 0.000000 1.000000
vn  0.000000 0.000000 1.000000
vn  0.000000 0.000000 1.000000
vn  0.000000 0.000000 1.000000
vn  0.000000 0.000000 1.000000
vn  0.000000 0.000000 1.000000
vn  0.000000 0.000000 1.000000
vn  0.000000 0.000000 1.000000

g 0010_ShittyLogo
usemtl Material8
f  137/137/137 138/138/138 139/139/139
f  140/140/140 137/137/137 139/139/139
f  141/141/141 137/137/137 140/140/140
f  142/142/142 141/141/141 140/140/140
f  143/143/143 141/141/141 142/142/142
f  143/143/143 142/142/142 144/144/144

g
